<svg aria-hidden="true" style="position: absolute; width: 0; height: 0; overflow: hidden;" version="1.1" xmlns="http://www.w3.org/2000/svg" xmlns:xlink="http://www.w3.org/1999/xlink">
<defs>
<symbol id="icon-profile-female" viewBox="0 0 36 32">
<path d="M22.22 20.726c-0.157-0.024-0.317 0.038-0.425 0.155-0.109 0.116-0.156 0.278-0.126 0.435 0.276 1.45 1.205 3.44 4.057 4.679 0.338 0.146 0.86 0.26 1.522 0.403 2.478 0.536 6.622 1.434 7.64 5.232 0.060 0.223 0.262 0.37 0.483 0.37 0.043 0 0.086-0.006 0.13-0.017 0.267-0.072 0.425-0.346 0.354-0.613-1.177-4.387-5.872-5.404-8.395-5.95-0.584-0.127-1.089-0.236-1.336-0.344-1.714-0.744-2.821-1.848-3.301-3.286 4.762 0.354 6.918-1.543 7.013-1.629 0.118-0.107 0.179-0.266 0.161-0.425s-0.11-0.3-0.249-0.38c-2.748-1.57-2.748-6.995-2.748-9.038 0-5.713-3.848-10.242-8.781-10.313-0.014-0.001-0.121-0.003-0.141-0.003 0 0 0 0-0.001 0-5.005 0.028-9.077 4.562-9.077 10.108 0 2.043 0 7.469-2.748 9.038-0.145 0.083-0.238 0.232-0.251 0.398-0.012 0.166 0.060 0.328 0.191 0.431 0.138 0.107 3.188 2.441 6.941 1.732-0.502 1.378-1.594 2.438-3.258 3.161-0.241 0.105-0.721 0.22-1.277 0.352-2.54 0.604-7.269 1.729-8.453 6.147-0.071 0.268 0.087 0.541 0.354 0.613 0.271 0.067 0.541-0.088 0.613-0.354 1.029-3.844 5.217-4.839 7.718-5.435 0.627-0.149 1.122-0.267 1.444-0.406 2.852-1.239 3.78-3.229 4.057-4.679 0.033-0.173-0.027-0.351-0.159-0.467-0.131-0.117-0.312-0.157-0.482-0.104-2.707 0.852-5.208-0.32-6.301-0.97 2.611-2.186 2.611-7.217 2.611-9.457 0-4.997 3.626-9.083 8.12-9.11 0.005 0 0.102 0.006 0.106 0.006 4.432 0.063 7.774 4.066 7.774 9.312 0 2.241 0 7.283 2.622 9.469-0.903 0.516-2.962 1.351-6.402 0.939z"></path>
</symbol>
<symbol id="icon-profile-male" viewBox="0 0 36 32">
<path d="M0.5 31.983c0.268 0.067 0.542-0.088 0.612-0.354 1.030-3.843 5.216-4.839 7.718-5.435 0.627-0.149 1.122-0.267 1.444-0.406 2.85-1.237 3.779-3.227 4.057-4.679 0.034-0.175-0.029-0.355-0.165-0.473-1.484-1.281-2.736-3.204-3.526-5.416-0.022-0.063-0.057-0.121-0.103-0.171-1.045-1.136-1.645-2.337-1.645-3.294 0-0.559 0.211-0.934 0.686-1.217 0.145-0.087 0.236-0.24 0.243-0.408 0.221-5.094 3.849-9.104 8.299-9.13 0.005 0 0.102 0.007 0.107 0.007 4.472 0.062 8.077 4.158 8.206 9.324 0.004 0.143 0.068 0.277 0.178 0.369 0.313 0.265 0.459 0.601 0.459 1.057 0 0.801-0.427 1.786-1.201 2.772-0.037 0.047-0.065 0.101-0.084 0.158-0.8 2.536-2.236 4.775-3.938 6.145-0.144 0.116-0.212 0.302-0.178 0.483 0.278 1.451 1.207 3.44 4.057 4.679 0.337 0.146 0.86 0.26 1.523 0.403 2.477 0.536 6.622 1.435 7.639 5.232 0.060 0.223 0.262 0.37 0.482 0.37 0.043 0 0.086-0.006 0.13-0.017 0.267-0.072 0.425-0.346 0.354-0.613-1.175-4.387-5.871-5.404-8.393-5.95-0.585-0.127-1.090-0.236-1.336-0.344-1.86-0.808-3.006-2.039-3.411-3.665 1.727-1.483 3.172-3.771 3.998-6.337 0.877-1.14 1.359-2.314 1.359-3.317 0-0.669-0.216-1.227-0.644-1.663-0.238-5.604-4.237-10.017-9.2-10.088l-0.149-0.002c-4.873 0.026-8.889 4.323-9.24 9.83-0.626 0.46-0.944 1.105-0.944 1.924 0 1.183 0.669 2.598 1.84 3.896 0.809 2.223 2.063 4.176 3.556 5.543-0.403 1.632-1.55 2.867-3.414 3.676-0.241 0.105-0.721 0.22-1.277 0.352-2.541 0.604-7.269 1.729-8.453 6.147-0.071 0.267 0.087 0.54 0.354 0.612z"></path>
</symbol>
<symbol id="icon-shopping-bag" viewBox="0 0 28 28">
<path d="M27.453 22l0.547 4.891c0.031 0.281-0.063 0.562-0.25 0.781-0.187 0.203-0.469 0.328-0.75 0.328h-26c-0.281 0-0.562-0.125-0.75-0.328-0.187-0.219-0.281-0.5-0.25-0.781l0.547-4.891h26.906zM26 8.891l1.344 12.109h-26.688l1.344-12.109c0.063-0.5 0.484-0.891 1-0.891h4v2c0 1.109 0.891 2 2 2s2-0.891 2-2v-2h6v2c0 1.109 0.891 2 2 2s2-0.891 2-2v-2h4c0.516 0 0.938 0.391 1 0.891zM20 6v4c0 0.547-0.453 1-1 1s-1-0.453-1-1v-4c0-2.203-1.797-4-4-4s-4 1.797-4 4v4c0 0.547-0.453 1-1 1s-1-0.453-1-1v-4c0-3.313 2.688-6 6-6s6 2.688 6 6z"></path>
</symbol>
<symbol id="icon-shopping-bag1" viewBox="0 0 24 24">
<path d="M19 5h-14l1.5-2h11zM21.794 5.392l-2.994-3.992c-0.196-0.261-0.494-0.399-0.8-0.4h-12c-0.326 0-0.616 0.156-0.8 0.4l-2.994 3.992c-0.043 0.056-0.081 0.117-0.111 0.182-0.065 0.137-0.096 0.283-0.095 0.426v14c0 0.828 0.337 1.58 0.879 2.121s1.293 0.879 2.121 0.879h14c0.828 0 1.58-0.337 2.121-0.879s0.879-1.293 0.879-2.121v-14c0-0.219-0.071-0.422-0.189-0.585-0.004-0.005-0.007-0.010-0.011-0.015zM4 7h16v13c0 0.276-0.111 0.525-0.293 0.707s-0.431 0.293-0.707 0.293h-14c-0.276 0-0.525-0.111-0.707-0.293s-0.293-0.431-0.293-0.707zM15 10c0 0.829-0.335 1.577-0.879 2.121s-1.292 0.879-2.121 0.879-1.577-0.335-2.121-0.879-0.879-1.292-0.879-2.121c0-0.552-0.448-1-1-1s-1 0.448-1 1c0 1.38 0.561 2.632 1.464 3.536s2.156 1.464 3.536 1.464 2.632-0.561 3.536-1.464 1.464-2.156 1.464-3.536c0-0.552-0.448-1-1-1s-1 0.448-1 1z"></path>
</symbol>
<symbol id="icon-circle-with-minus" viewBox="0 0 20 20">
<path d="M10 1.6c-4.639 0-8.4 3.761-8.4 8.4s3.761 8.4 8.4 8.4 8.4-3.761 8.4-8.4c0-4.639-3.761-8.4-8.4-8.4zM15 11h-10v-2h10v2z"></path>
</symbol>
<symbol id="icon-circle-with-plus" viewBox="0 0 20 20">
<path d="M10 1.6c-4.639 0-8.4 3.761-8.4 8.4s3.761 8.4 8.4 8.4 8.4-3.761 8.4-8.4c0-4.639-3.761-8.4-8.4-8.4zM15 11h-4v4h-2v-4h-4v-2h4v-4h2v4h4v2z"></path>
</symbol>
<symbol id="icon-medal" viewBox="0 0 20 20">
<path d="M10 10c0.528 0 1.026 0.104 1.504 0.256l-6.077-9.115c-0.059-0.088-0.157-0.141-0.263-0.141h-3.556c-0.117 0-0.188 0.131-0.122 0.229l6.231 9.347c0.687-0.356 1.456-0.576 2.283-0.576zM18.392 1h-3.556c-0.106 0-0.204 0.053-0.263 0.141l-3.823 5.734 2 3 5.764-8.646c0.065-0.098-0.005-0.229-0.122-0.229zM10 11c-2.209 0-4 1.791-4 4s1.791 4 4 4 4-1.791 4-4c0-2.209-1.791-4-4-4zM12.112 15.117c0.062 0.064 0.052 0.158-0.022 0.208s-0.095 0.153-0.049 0.229c0.047 0.076 0.018 0.165-0.065 0.199s-0.125 0.13-0.095 0.214-0.017 0.165-0.104 0.181-0.149 0.101-0.137 0.189-0.051 0.158-0.14 0.155c-0.089-0.003-0.167 0.068-0.174 0.156s-0.083 0.144-0.169 0.123-0.178 0.031-0.203 0.117-0.111 0.124-0.191 0.085c-0.080-0.039-0.18-0.006-0.222 0.072s-0.134 0.098-0.205 0.043-0.175-0.044-0.232 0.024-0.151 0.068-0.209 0-0.162-0.079-0.232-0.024-0.162 0.035-0.205-0.043-0.142-0.111-0.222-0.072c-0.080 0.039-0.166 0-0.191-0.085s-0.116-0.138-0.203-0.117-0.163-0.034-0.169-0.123-0.084-0.159-0.173-0.157c-0.089 0.003-0.152-0.067-0.14-0.155s-0.050-0.173-0.137-0.189-0.135-0.097-0.104-0.181-0.013-0.18-0.095-0.214-0.111-0.123-0.065-0.199c0.047-0.076 0.025-0.179-0.049-0.229s-0.083-0.144-0.022-0.208c0.062-0.064 0.062-0.169 0-0.234s-0.052-0.158 0.022-0.208 0.095-0.153 0.049-0.229c-0.047-0.076-0.018-0.165 0.065-0.199s0.125-0.13 0.095-0.214 0.017-0.165 0.104-0.181 0.149-0.101 0.137-0.189 0.051-0.158 0.14-0.155c0.089 0.003 0.167-0.068 0.174-0.156s0.083-0.144 0.169-0.123 0.178-0.031 0.203-0.117 0.111-0.124 0.191-0.085c0.080 0.039 0.18 0.006 0.222-0.072s0.134-0.098 0.205-0.043 0.175 0.044 0.232-0.024 0.151-0.068 0.209 0 0.162 0.079 0.232 0.024 0.162-0.035 0.205 0.043 0.142 0.111 0.222 0.072c0.080-0.039 0.166 0 0.191 0.085s0.116 0.138 0.203 0.117 0.163 0.034 0.169 0.123 0.085 0.159 0.174 0.156c0.089-0.003 0.152 0.067 0.14 0.155s0.050 0.173 0.137 0.189 0.135 0.097 0.104 0.181 0.013 0.18 0.095 0.214 0.111 0.123 0.065 0.199c-0.047 0.076-0.025 0.179 0.049 0.229s0.083 0.144 0.022 0.208-0.063 0.171-0.001 0.235z"></path>
</symbol>
<symbol id="icon-cart" viewBox="0 0 32 32">
<path d="M12 29c0 1.657-1.343 3-3 3s-3-1.343-3-3c0-1.657 1.343-3 3-3s3 1.343 3 3z"></path>
<path d="M32 29c0 1.657-1.343 3-3 3s-3-1.343-3-3c0-1.657 1.343-3 3-3s3 1.343 3 3z"></path>
<path d="M32 16v-12h-24c0-1.105-0.895-2-2-2h-6v2h4l1.502 12.877c-0.915 0.733-1.502 1.859-1.502 3.123 0 2.209 1.791 4 4 4h24v-2h-24c-1.105 0-2-0.895-2-2 0-0.007 0-0.014 0-0.020l26-3.98z"></path>
</symbol>
<symbol id="icon-truck" viewBox="0 0 32 32">
<path d="M32 18l-4-8h-6v-4c0-1.1-0.9-2-2-2h-18c-1.1 0-2 0.9-2 2v16l2 2h2.536c-0.341 0.588-0.536 1.271-0.536 2 0 2.209 1.791 4 4 4s4-1.791 4-4c0-0.729-0.196-1.412-0.536-2h11.073c-0.341 0.588-0.537 1.271-0.537 2 0 2.209 1.791 4 4 4s4-1.791 4-4c0-0.729-0.196-1.412-0.537-2h2.537v-6zM22 18v-6h4.146l3 6h-7.146z"></path>
</symbol>
</defs>
</svg>
